<svg width="48" height="40" viewBox="0 0 48 40" fill="none" xmlns="http://www.w3.org/2000/svg">
<path fill-rule="evenodd" clip-rule="evenodd" d="M19.0431 0.000672478C19.8787 0.0240431 20.5743 0.652074 20.6865 1.48425L24.089 26.7286L27.2653 7.34063C27.3899 6.58002 28.0045 5.99651 28.7674 5.9145C29.5303 5.83248 30.2538 6.27213 30.5358 6.98903L34.9978 18.3336H48V21.7621H33.8374C33.1371 21.7621 32.5079 21.3322 32.2505 20.6779L29.6302 14.0158L25.6085 38.5641C25.4713 39.4014 24.7451 40.0119 23.9005 39.9998C23.056 39.9877 22.3474 39.3567 22.234 38.5158L18.702 12.3107L15.7419 27.7528C15.5872 28.5597 14.8843 29.1429 14.0664 29.1429H0V25.7143H12.6574L17.3202 1.39009C17.4782 0.565473 18.2076 -0.022698 19.0431 0.000672478Z" fill="#8095F2"/>
</svg>
