<svg width="82" height="29" viewBox="0 0 82 29" fill="none" xmlns="http://www.w3.org/2000/svg">
<path d="M27.5801 21.0332H36.2944V18.7144H30.1118V15.6536H33.6267V13.3534H30.1118V10.1998H35.9091V7.86251H27.5801V21.0332Z" fill="#181A36"/>
<path d="M38.5805 21.0332H42.9468C47.1297 21.0332 49.6615 18.3434 49.6615 14.4664C49.6615 10.5709 47.0196 7.86251 42.8918 7.86251H38.5805V21.0332ZM41.1306 18.7144V10.1998H42.9468C45.2951 10.1998 46.9829 11.9992 46.9829 14.4664C46.9829 16.8779 45.3135 18.7144 42.7817 18.7144H41.1306Z" fill="#181A36"/>
<path d="M52.0734 21.0332H54.6602V7.86251H52.0734V21.0332Z" fill="#181A36"/>
<path d="M63.7165 21.1631C66.0281 21.1631 67.7893 20.0871 68.9084 18.6773L67.0187 17.0264C66.2482 17.991 65.0741 18.6959 63.7165 18.6959C61.3865 18.6959 59.7721 16.9336 59.7721 14.485C59.7721 11.8508 61.4599 10.1813 63.7165 10.1813C65.0741 10.1813 66.2482 10.9419 67.0187 11.8508L68.9084 10.2184C67.4774 8.45612 65.5144 7.69556 63.7165 7.69556C59.4602 7.69556 57.0752 10.7193 57.0752 14.485C57.0752 18.8257 60.1574 21.1631 63.7165 21.1631Z" fill="#181A36"/>
<path d="M79.303 21.0332H81.9998L77.1381 7.86251H74.6614L69.8364 21.0332H72.5333L73.4139 18.3991H78.4223L79.303 21.0332ZM74.1661 16.173L75.8906 10.9975H75.9273L77.6702 16.173H74.1661Z" fill="#181A36"/>
<path fill-rule="evenodd" clip-rule="evenodd" d="M13.8036 0.000485175C14.4093 0.0173465 14.9135 0.470455 14.9948 1.07085L17.4612 19.284L19.7635 5.29607C19.8539 4.74731 20.2994 4.32633 20.8523 4.26716C21.4053 4.20798 21.9298 4.52518 22.1342 5.04241L25.3685 13.2272H34.7933V15.7008H24.5274C24.0198 15.7008 23.5637 15.3906 23.3771 14.9185L21.4778 10.112L18.5626 27.823C18.4632 28.4271 17.9367 28.8676 17.3246 28.8588C16.7124 28.8501 16.1987 28.3948 16.1166 27.7881L13.5564 8.88182L11.4107 20.0229C11.2985 20.6051 10.789 21.0258 10.1962 21.0258H0V18.5522H9.17482L12.5547 1.00291C12.6693 0.407974 13.198 -0.016376 13.8036 0.000485175Z" fill="#8095F2"/>
</svg>
